:FULLY-SPECIFIED
:FORCE-ALL-JOINTS-BE-3DOF
:DEGREES
476
root 3.22789 16.1986 -7.1637 19.6187 62.7999 5.7666
lfemur -40.7925 0.280408 -18.1385
ltibia 50.3171 0 0
lfoot -20.2085 -4.94338 0
ltoes 14.0526 0 0
rfemur -33.1973 -0.653781 11.9873
rtibia 61.5528 0 0
rfoot 5.15713 -4.50768 0
rtoes -32.0195 0 0
lowerback 3.3559 -0.23275 2.07716
upperback -0.296286 -0.265817 0.874824
thorax -2.10865 -0.150925 -0.229209
lowerneck -8.45364 -5.73657 1.09414
upperneck 3.35517 -7.78212 0.819301
head 2.57116 -3.84334 -0.303127
lclavicle -3.43272e-014 -9.33863e-015 0
lhumerus -46.345 -29.8982 109.573
lradius 54.6285 0 0
lwrist 1.45184 0 0
lhand -6.14005 -3.37423 0
lfingers 7.12502 0 0
lthumb 19.6425 24.8583 0
rclavicle -3.43272e-014 -9.33863e-015 0
rhumerus -51.8552 13.7631 -92.8036
rradius 67.8894 0 0
rwrist 25.7287 0 0
rhand -17.3171 -21.9307 0
rfingers 7.12502 0 0
rthumb 8.92566 -771.616 0
477
root 3.33238 16.2347 -7.10861 19.9342 64.3028 6.52399
lfemur -39.8144 -1.02774 -18.5613
ltibia 49.6548 0 0
lfoot -20.2939 -4.96257 0
ltoes 14.6028 0 0
rfemur -34.7997 -0.33139 12.0295
rtibia 63.2026 0 0
rfoot 5.81506 -3.70972 0
rtoes -30.5852 0 0
lowerback 3.36603 -0.268288 1.81562
upperback -0.314087 -0.32721 0.806427
thorax -2.13522 -0.180488 -0.150319
lowerneck -8.50356 -5.91301 0.963108
upperneck 3.54263 -8.00991 0.855168
head 2.64989 -3.95465 -0.285269
lclavicle -3.3609e-014 -9.60307e-015 0
lhumerus -46.5796 -30.1082 109.923
lradius 54.685 0 0
lwrist 1.48244 0 0
lhand -5.05113 -3.04055 0
lfingers 7.12502 0 0
lthumb 20.6902 25.1112 0
rclavicle -3.3609e-014 -9.60307e-015 0
rhumerus -51.8434 14.5935 -93.151
rradius 68.1418 0 0
rwrist 26.2802 0 0
rhand -16.818 -21.795 0
rfingers 7.12502 0 0
rthumb 9.40736 -771.466 0
478
root 3.43723 16.2694 -7.05351 20.1568 65.7626 7.18768
lfemur -38.8463 -2.31653 -18.9774
ltibia 49.0166 0 0
lfoot -20.3839 -4.9772 0
ltoes 15.1324 0 0
rfemur -36.384 -0.0184491 12.0654
rtibia 64.826 0 0
rfoot 6.45912 -2.9195 0
rtoes -29.1701 0 0
lowerback 3.3805 -0.301834 1.55751
upperback -0.328445 -0.385306 0.741552
thorax -2.16074 -0.208302 -0.0699517
lowerneck -8.55045 -6.09014 0.83166
upperneck 3.73127 -8.23887 0.892862
head 2.72888 -4.06641 -0.267099
lclavicle -3.28482e-014 -9.83106e-015 0
lhumerus -46.8091 -30.3092 110.266
lradius 54.7425 0 0
lwrist 1.52453 0 0
lhand -3.98873 -2.71246 0
lfingers 7.12502 0 0
lthumb 21.7125 25.3607 0
rclavicle -3.28482e-014 -9.83106e-015 0
rhumerus -51.804 15.4088 -93.4897
rradius 68.4202 0 0
rwrist 26.7873 0 0
rhand -16.3335 -21.6624 0
rfingers 7.12502 0 0
rthumb 9.87501 -771.32 0
479
root 3.54214 16.3026 -6.9984 20.2783 67.1757 7.74789
lfemur -37.892 -3.58124 -19.3853
ltibia 48.4065 0 0
lfoot -20.4791 -4.98757 0
ltoes 15.6386 0 0
rfemur -37.9438 0.284378 12.0937
rtibia 66.4152 0 0
rfoot 7.08646 -2.13998 0
rtoes -27.7821 0 0
lowerback 3.39954 -0.333324 1.30392
upperback -0.339104 -0.43992 0.680812
thorax -2.1851 -0.234268 0.0119009
lowerneck -8.59403 -6.26791 0.699822
upperneck 3.92068 -8.46896 0.932516
head 2.80797 -4.17859 -0.248589
lclavicle -3.20435e-014 -1.00199e-014 0
lhumerus -47.0325 -30.5004 110.6
lradius 54.801 0 0
lwrist 1.57831 0 0
lhand -2.95737 -2.3915 0
lfingers 7.12502 0 0
lthumb 22.705 25.6058 0
rclavicle -3.20435e-014 -1.00199e-014 0
rhumerus -51.7349 16.2054 -93.8184
rradius 68.7265 0 0
rwrist 27.2454 0 0
rhand -15.866 -21.5336 0
rfingers 7.12502 0 0
rthumb 10.3263 -771.177 0
480
root 3.64684 16.3341 -6.94328 20.2906 68.5387 8.19485
lfemur -36.9556 -4.81715 -19.7837
ltibia 47.8285 0 0
lfoot -20.5798 -4.99397 0
ltoes 16.1188 0 0
rfemur -39.4728 0.576429 12.1131
rtibia 67.9629 0 0
rfoot 7.69425 -1.37407 0
rtoes -26.4293 0 0
lowerback 3.42339 -0.362695 1.05596
upperback -0.345809 -0.490867 0.62482
thorax -2.20814 -0.25829 0.0952494
lowerneck -8.63398 -6.44629 0.567627
upperneck 4.11046 -8.70015 0.974261
head 2.88697 -4.29116 -0.229711
lclavicle -3.11937e-014 -1.01667e-014 0
lhumerus -47.2488 -30.681 110.924
lradius 54.8606 0 0
lwrist 1.64403 0 0
lhand -1.96157 -2.0792 0
lfingers 7.12502 0 0
lthumb 23.6632 25.8451 0
rclavicle -3.11937e-014 -1.01667e-014 0
rhumerus -51.6339 16.9801 -94.1354
rradius 69.0622 0 0
rwrist 27.65 0 0
rhand -15.4179 -21.4095 0
rfingers 7.12502 0 0
rthumb 10.7588 -771.041 0
481
root 3.75102 16.3637 -6.88813 20.1858 69.8479 8.51879
lfemur -36.0409 -6.01954 -20.1712
ltibia 47.2863 0 0
lfoot -20.6865 -4.99671 0
ltoes 16.5701 0 0
rfemur -40.9647 0.85704 12.1226
rtibia 69.4612 0 0
rfoot 8.27966 -0.624726 0
rtoes -25.1197 0 0
lowerback 3.45227 -0.389882 0.814712
upperback -0.348303 -0.537964 0.57419
thorax -2.22975 -0.28027 0.180104
lowerneck -8.67002 -6.62522 0.435106
upperneck 4.3002 -8.93239 1.01823
head 2.96571 -4.4041 -0.210435
lclavicle -3.02976e-014 -1.02688e-014 0
lhumerus -47.4568 -30.8503 111.238
lradius 54.9214 0 0
lwrist 1.72193 0 0
lhand -1.00585 -1.77711 0
lfingers 7.12502 0 0
lthumb 24.5829 26.0774 0
rclavicle -3.02976e-014 -1.02688e-014 0
rhumerus -51.4991 17.7296 -94.4392
rradius 69.4292 0 0
rwrist 27.9966 0 0
rhand -14.9915 -21.291 0
rfingers 7.12502 0 0
rthumb 11.1704 -770.91 0
482
root 3.85441 16.3911 -6.83295 19.9557 71.1 8.70991
lfemur -35.152 -7.18367 -20.5464
ltibia 46.784 0 0
lfoot -20.7995 -4.99607 0
ltoes 16.9899 0 0
rfemur -42.4133 1.12555 12.1208
rtibia 70.9028 0 0
rfoot 8.83984 0.105118 0
rtoes -23.8614 0 0
lowerback 3.48641 -0.414822 0.581279
upperback -0.346332 -0.581027 0.529535
thorax -2.24979 -0.30011 0.266474
lowerneck -8.70184 -6.80467 0.302292
upperneck 4.48952 -9.16565 1.06455
head 3.04401 -4.5174 -0.190733
lclavicle -2.9354e-014 -1.03235e-014 0
lhumerus -47.6557 -31.0074 111.541
lradius 54.9836 0 0
lwrist 1.81223 0 0
lhand -0.0947291 -1.48675 0
lfingers 7.12502 0 0
lthumb 25.4597 26.3017 0
rclavicle -2.9354e-014 -1.03235e-014 0
rhumerus -51.3284 18.4506 -94.7282
rradius 69.8289 0 0
rwrist 28.2806 0 0
rhand -14.5894 -21.1787 0
rfingers 7.12502 0 0
rthumb 11.5585 -770.786 0
483
root 3.9567 16.4162 -6.77774 19.5923 72.2913 8.75845
lfemur -34.2927 -8.30484 -20.9079
ltibia 46.3254 0 0
lfoot -20.9192 -4.99236 0
ltoes 17.3753 0 0
rfemur -43.8122 1.38129 12.1065
rtibia 72.2799 0 0
rfoot 9.37197 0.812524 0
rtoes -22.6622 0 0
lowerback 3.52604 -0.437452 0.356755
upperback -0.339638 -0.619872 0.491467
thorax -2.26814 -0.317712 0.35437
lowerneck -8.72915 -6.98458 0.169215
upperneck 4.678 -9.39989 1.11335
head 3.12169 -4.63102 -0.170577
lclavicle -2.83616e-014 -1.0328e-014 0
lhumerus -47.8443 -31.1514 111.831
lradius 55.0472 0 0
lwrist 1.91516 0 0
lhand 0.767273 -1.20968 0
lfingers 7.12502 0 0
lthumb 26.2892 26.5166 0
rclavicle -2.83616e-014 -1.0328e-014 0
rhumerus -51.1196 19.1398 -95.0008
rradius 70.2631 0 0
rwrist 28.4974 0 0
rhand -14.2139 -21.0737 0
rfingers 7.12502 0 0
rthumb 11.9209 -770.67 0
484
root 4.05762 16.4388 -6.72249 19.0875 73.4185 8.65464
lfemur -33.4669 -9.37831 -21.2544
ltibia 45.9144 0 0
lfoot -21.046 -4.98586 0
ltoes 17.7236 0 0
rfemur -45.1552 1.62359 12.0786
rtibia 73.5851 0 0
rfoot 9.87321 1.49455 0
rtoes -21.5303 0 0
lowerback 3.5714 -0.457708 0.142235
upperback -0.327966 -0.654314 0.460601
thorax -2.28465 -0.332981 0.443802
lowerneck -8.75166 -7.16493 0.0359075
upperneck 4.86523 -9.63508 1.16476
head 3.19859 -4.74495 -0.149938
lclavicle -2.73192e-014 -1.02796e-014 0
lhumerus -48.0217 -31.2816 112.108
lradius 55.1123 0 0
lwrist 2.03097 0 0
lhand 1.57564 -0.94743 0
lfingers 7.12502 0 0
lthumb 27.0672 26.7209 0
rclavicle -2.73192e-014 -1.02796e-014 0
rhumerus -50.8706 19.7938 -95.2555
rradius 70.7335 0 0
rwrist 28.6425 0 0
rhand -13.8675 -20.9766 0
rfingers 7.12502 0 0
rthumb 12.2553 -770.562 0
485
root 4.15687 16.4587 -6.6672 18.4334 74.4779 8.38868
lfemur -32.6787 -10.3994 -21.5845
ltibia 45.5549 0 0
lfoot -21.1804 -4.97687 0
ltoes 18.032 0 0
rfemur -46.4358 1.85181 12.0358
rtibia 74.8107 0 0
rfoot 10.3407 2.14827 0
rtoes -20.4737 0 0
lowerback 3.6227 -0.475526 -0.0611851
upperback -0.311061 -0.684169 0.437548
thorax -2.2992 -0.345816 0.53478
lowerneck -8.76905 -7.34565 -0.0975985
upperneck 5.05083 -9.87117 1.21893
head 3.27451 -4.85916 -0.128788
lclavicle -2.62256e-014 -1.01754e-014 0
lhumerus -48.1869 -31.3972 112.371
lradius 55.179 0 0
lwrist 2.15989 0 0
lhand 2.32584 -0.701537 0
lfingers 7.12502 0 0
lthumb 27.7892 26.9135 0
rclavicle -2.62256e-014 -1.01754e-014 0
rhumerus -50.5795 20.4093 -95.4908
rradius 71.2418 0 0
rwrist 28.7113 0 0
rhand -13.5526 -20.8884 0
rfingers 7.12502 0 0
rthumb 12.5593 -770.464 0
486
root 4.25416 16.4756 -6.61186 17.6217 75.4661 7.9508
lfemur -31.932 -11.3633 -21.8968
ltibia 45.2509 0 0
lfoot -21.3227 -4.96568 0
ltoes 18.2979 0 0
rfemur -47.648 2.06527 11.9768
rtibia 75.9491 0 0
rfoot 10.7717 2.77074 0
rtoes -19.5003 0 0
lowerback 3.68019 -0.490842 -0.252409
upperback -0.288667 -0.709254 0.422923
thorax -2.31167 -0.356123 0.627313
lowerneck -8.78104 -7.52671 -0.231271
upperneck 5.23439 -10.1081 1.27597
head 3.34928 -4.97363 -0.107097
lclavicle -2.50795e-014 -1.00128e-014 0
lhumerus -48.3388 -31.4973 112.618
lradius 55.2474 0 0
lwrist 2.30214 0 0
lhand 3.01336 -0.473542 0
lfingers 7.12502 0 0
lthumb 28.4509 27.0932 0
rclavicle -2.50795e-014 -1.00128e-014 0
rhumerus -50.244 20.9831 -95.705
rradius 71.7895 0 0
rwrist 28.6994 0 0
rhand -13.2715 -20.8098 0
rfingers 7.12502 0 0
rthumb 12.8306 -770.377 0
487
root 4.3492 16.4894 -6.55646 16.6445 76.3796 7.33124
lfemur -31.2306 -12.2653 -22.19
ltibia 45.0062 0 0
lfoot -21.4733 -4.9526 0
ltoes 18.5184 0 0
rfemur -48.7852 2.2633 11.9006
rtibia 76.9929 0 0
rfoot 11.1632 3.35901 0
rtoes -18.6183 0 0
lowerback 3.74409 -0.503593 -0.430342
upperback -0.260528 -0.729385 0.417338
thorax -2.3219 -0.363802 0.721412
lowerneck -8.78733 -7.70807 -0.36508
upperneck 5.4155 -10.3459 1.33601
head 3.42274 -5.08834 -0.0848375
lclavicle -2.38798e-014 -9.78902e-015 0
lhumerus -48.4765 -31.5812 112.85
lradius 55.3176 0 0
lwrist 2.45796 0 0
lhand 3.63367 -0.264984 0
lfingers 7.12502 0 0
lthumb 29.0479 27.2588 0
rclavicle -2.38798e-014 -9.78902e-015 0
rhumerus -49.8621 21.5117 -95.8966
rradius 72.3785 0 0
rwrist 28.6021 0 0
rhand -13.0267 -20.7416 0
rfingers 7.12502 0 0
rthumb 13.0669 -770.301 0
